<?xml version="1.0"?>
<svg xmlns="http://www.w3.org/2000/svg" xmlns:xlink="http://www.w3.org/1999/xlink" xmlns:svgjs="http://svgjs.com/svgjs" version="1.1" width="512" height="512" x="0" y="0" viewBox="0 0 512 512" style="enable-background:new 0 0 512 512" xml:space="preserve"><g><path xmlns="http://www.w3.org/2000/svg" d="m501.27 280.98-73-64c-1-.87-74.42-28.65-124.27-47.45v-49.53h32a8 8 0 0 0 6.15-13.12l-80-96a8.006 8.006 0 0 0 -12.3 0l-80 96a8 8 0 0 0 6.15 13.12h32v49.53c-49.85 18.8-123.27 46.58-124.27 47.45l-73 64a8.009 8.009 0 0 0 2.42 13.5l67 25.52h-.15v110a8 8 0 0 0 5.11 7.46l168 65a8 8 0 0 0 5.78 0l168-65a8 8 0 0 0 5.11-7.46v-110h-.15l67-25.52a8.009 8.009 0 0 0 2.42-13.5zm-308.19-176.98 62.92-75.5 62.92 75.5h-22.92a8 8 0 0 0 -8 8v120h-64v-120a8 8 0 0 0 -8-8zm-161.81 180.25 59.37-52.05 150.21 57.56-58.54 52.04zm216.73 199.08-152-58.81v-98.48l85.15 32.44a8.065 8.065 0 0 0 2.85.52 7.98 7.98 0 0 0 5.31-2.02l58.69-52.16zm8-204.9-143.78-55.1 95.78-36.49v53.16a8 8 0 0 0 8 8h80a8 8 0 0 0 8-8v-53.16l95.78 36.49zm160 146.09-152 58.81v-178.51l58.69 52.16a7.98 7.98 0 0 0 5.31 2.02 8.065 8.065 0 0 0 2.85-.52l85.15-32.44zm-86.31-82.72-58.54-52.04 150.21-57.56 59.37 52.05z" fill="#ffffff" data-original="#000000" style=""/></g></svg>
